<svg xmlns="http://www.w3.org/2000/svg" viewBox="0 0 100 100">
  <defs>
    <linearGradient id="grad1" x1="0%" y1="0%" x2="100%" y2="100%">
      <stop offset="0%" style="stop-color:#667eea;stop-opacity:1" />
      <stop offset="100%" style="stop-color:#764ba2;stop-opacity:1" />
    </linearGradient>
  </defs>
  
  <!-- Circuit board pattern -->
  <path d="M20 30 L40 30 M30 20 L30 40" stroke="url(#grad1)" stroke-width="3" fill="none"/>
  <circle cx="30" cy="30" r="4" fill="url(#grad1)"/>
  
  <path d="M60 30 L80 30 M70 20 L70 40" stroke="url(#grad1)" stroke-width="3" fill="none"/>
  <circle cx="70" cy="30" r="4" fill="url(#grad1)"/>
  
  <path d="M20 70 L40 70 M30 60 L30 80" stroke="url(#grad1)" stroke-width="3" fill="none"/>
  <circle cx="30" cy="70" r="4" fill="url(#grad1)"/>
  
  <path d="M60 70 L80 70 M70 60 L70 80" stroke="url(#grad1)" stroke-width="3" fill="none"/>
  <circle cx="70" cy="70" r="4" fill="url(#grad1)"/>
  
  <!-- Connect nodes -->
  <path d="M40 30 L60 30 M40 70 L60 70 M30 40 L30 60 M70 40 L70 60" stroke="url(#grad1)" stroke-width="2" fill="none" opacity="0.6"/>
  
  <!-- Center AI chip -->
  <rect x="40" y="40" width="20" height="20" rx="3" fill="url(#grad1)"/>
  <text x="50" y="52" font-family="Arial, sans-serif" font-size="14" font-weight="bold" text-anchor="middle" fill="white">AI</text>
</svg>
